<?xml version="1.0" encoding="UTF-8" standalone="no"?> <svg id="Layer_1" data-name="Layer 1" xmlns="http://www.w3.org/2000/svg" viewBox="0 0 128 128"><defs><style>.cls-1{fill:#1d75b8;}.cls-2{fill:#2d3e50;}</style></defs><title>v</title><path class="cls-1" d="M80.51826,58.70589,103.3377,72.576a24.80583,24.80583,0,0,0,5.96131-6.02074,27.83,27.83,0,0,0,4.90579-14.77689c.56492-11.41718-4.79432-23.50327-10.986-32.60874-2.54213-3.7314-5.35924-7.81957-5.35924-12.5247,0-.37165-.96629.86226-1.0332.944a10.65666,10.65666,0,0,0-1.53864,3.24823c-1.41225,4.90579.71359,10.24271-.02228,15.28977a13.12916,13.12916,0,0,1-7.58171,9.96025c-5.03958,1.992-8.65207-1.31562-9.43253-6.22145-.72842-4.57129.43857-9.67039-2.661-13.61734-.06687-.08919-1.15211-1.46429-1.15211-1.05548-.12635,4.65309-2.54209,8.7933-4.8166,12.71053-4.18481,7.1803-7.1729,16.32293-6.73433,24.96756A41.35509,41.35509,0,0,1,80.51826,58.70589Z"/><path class="cls-2" d="M116.82764,85.22452l-15.02106-6.02215h-.45694L77.04523,64.42567a34.723,34.723,0,0,0-18.04041-5.05351H35.98866A15.077,15.077,0,0,0,25.32494,63.83L10.153,79.20237h-.02073l-.05825.08-.7903.80078.12263.121c-1.38866,1.92654-3.59412,5.04842-5.87207,8.57807a10.906,10.906,0,0,0-1.74738,5.92V108.6175a2.5452,2.5452,0,0,0,2.54449,2.54445H15.93311a13.11923,13.11923,0,0,0,25.607,0H87.14525a13.11772,13.11772,0,0,0,25.60692,0h10.91655a2.54519,2.54519,0,0,0,2.5444-2.54445v-12.112A11.47229,11.47229,0,0,0,116.82764,85.22452ZM28.73541,116.33586a8.02572,8.02572,0,1,1,8.02686-8.027A8.02551,8.02551,0,0,1,28.73541,116.33586ZM49.12455,79.20237H17.32376L28.95744,67.41494a9.9406,9.9406,0,0,1,7.03122-2.93933H49.12455Zm37.448,0H53.74185V64.47562h5.263a29.61758,29.61758,0,0,1,15.389,4.31088L86.57257,76.191ZM99.95,116.33586a8.02581,8.02581,0,0,1-.34511-16.04414c.11419-.0049.22843-.0073.34511-.0073a8.02572,8.02572,0,1,1,0,16.05145Z"/></svg>