<svg xmlns="http://www.w3.org/2000/svg" version="1.1" xmlns:xlink="http://www.w3.org/1999/xlink" xmlns:svgjs="http://svgjs.com/svgjs" width="640" height="200" preserveAspectRatio="none" viewBox="0 0 640 200"><g mask="url(&quot;#SvgjsMask1050&quot;)" fill="none"><rect width="640" height="200" x="0" y="0" fill="rgba(154, 33, 9, 1)"></rect><path d="M-57.26 182.8L-57.26 182.8" stroke="rgba(154, 131, 9, 1)" stroke-width="1.5"></path><path d="M-57.26 182.8L-31.01 277.13" stroke="rgba(154, 131, 9, 1)" stroke-width="1.5"></path><path d="M-57.26 182.8L42.34 201.15" stroke="rgba(154, 131, 9, 1)" stroke-width="1.5"></path><path d="M-57.26 182.8L34.74 272.14" stroke="rgba(154, 131, 9, 1)" stroke-width="1.5"></path><path d="M-57.26 182.8L105.35 207.21" stroke="rgba(154, 131, 9, 1)" stroke-width="1.5"></path><path d="M-31.01 277.13L-31.01 277.13" stroke="rgba(154, 131, 9, 1)" stroke-width="1.5"></path><path d="M-31.01 277.13L34.74 272.14" stroke="rgba(154, 131, 9, 1)" stroke-width="1.5"></path><path d="M42.34 201.15L42.34 201.15" stroke="rgba(154, 131, 9, 1)" stroke-width="1.5"></path><path d="M42.34 201.15L105.35 207.21" stroke="rgba(154, 131, 9, 1)" stroke-width="1.5"></path><path d="M42.34 201.15L34.74 272.14" stroke="rgba(154, 131, 9, 1)" stroke-width="1.5"></path><path d="M42.34 201.15L-31.01 277.13" stroke="rgba(154, 131, 9, 1)" stroke-width="1.5"></path><path d="M42.34 201.15L188.59 268.71" stroke="rgba(154, 131, 9, 1)" stroke-width="1.5"></path><path d="M34.74 272.14L34.74 272.14" stroke="rgba(154, 131, 9, 1)" stroke-width="1.5"></path><path d="M34.74 272.14L105.35 207.21" stroke="rgba(154, 131, 9, 1)" stroke-width="1.5"></path><path d="M105.35 207.21L105.35 207.21" stroke="rgba(154, 131, 9, 1)" stroke-width="1.5"></path><path d="M105.35 207.21L208.75 210.31" stroke="rgba(154, 131, 9, 1)" stroke-width="1.5"></path><path d="M105.35 207.21L188.59 268.71" stroke="rgba(154, 131, 9, 1)" stroke-width="1.5"></path><path d="M105.35 207.21L189.06 131.63" stroke="rgba(154, 131, 9, 1)" stroke-width="1.5"></path><path d="M189.06 131.63L189.06 131.63" stroke="rgba(154, 131, 9, 1)" stroke-width="1.5"></path><path d="M189.06 131.63L208.75 210.31" stroke="rgba(154, 131, 9, 1)" stroke-width="1.5"></path><path d="M189.06 131.63L275.21 104.16" stroke="rgba(154, 131, 9, 1)" stroke-width="1.5"></path><path d="M208.75 210.31L208.75 210.31" stroke="rgba(154, 131, 9, 1)" stroke-width="1.5"></path><path d="M208.75 210.31L264.37 218.4" stroke="rgba(154, 131, 9, 1)" stroke-width="1.5"></path><path d="M208.75 210.31L188.59 268.71" stroke="rgba(154, 131, 9, 1)" stroke-width="1.5"></path><path d="M208.75 210.31L277.66 282.72" stroke="rgba(154, 131, 9, 1)" stroke-width="1.5"></path><path d="M188.59 268.71L188.59 268.71" stroke="rgba(154, 131, 9, 1)" stroke-width="1.5"></path><path d="M188.59 268.71L277.66 282.72" stroke="rgba(154, 131, 9, 1)" stroke-width="1.5"></path><path d="M188.59 268.71L264.37 218.4" stroke="rgba(154, 131, 9, 1)" stroke-width="1.5"></path><path d="M275.21 104.16L275.21 104.16" stroke="rgba(154, 131, 9, 1)" stroke-width="1.5"></path><path d="M275.21 104.16L372.2 126.42" stroke="rgba(154, 131, 9, 1)" stroke-width="1.5"></path><path d="M275.21 104.16L264.37 218.4" stroke="rgba(154, 131, 9, 1)" stroke-width="1.5"></path><path d="M275.21 104.16L355.74 188.33" stroke="rgba(154, 131, 9, 1)" stroke-width="1.5"></path><path d="M264.37 218.4L264.37 218.4" stroke="rgba(154, 131, 9, 1)" stroke-width="1.5"></path><path d="M264.37 218.4L277.66 282.72" stroke="rgba(154, 131, 9, 1)" stroke-width="1.5"></path><path d="M264.37 218.4L355.74 188.33" stroke="rgba(154, 131, 9, 1)" stroke-width="1.5"></path><path d="M277.66 282.72L277.66 282.72" stroke="rgba(154, 131, 9, 1)" stroke-width="1.5"></path><path d="M372.2 126.42L372.2 126.42" stroke="rgba(154, 131, 9, 1)" stroke-width="1.5"></path><path d="M372.2 126.42L432.5 113.68" stroke="rgba(154, 131, 9, 1)" stroke-width="1.5"></path><path d="M372.2 126.42L355.74 188.33" stroke="rgba(154, 131, 9, 1)" stroke-width="1.5"></path><path d="M372.2 126.42L431.9 180.7" stroke="rgba(154, 131, 9, 1)" stroke-width="1.5"></path><path d="M355.74 188.33L355.74 188.33" stroke="rgba(154, 131, 9, 1)" stroke-width="1.5"></path><path d="M355.74 188.33L431.9 180.7" stroke="rgba(154, 131, 9, 1)" stroke-width="1.5"></path><path d="M374.08 292.98L374.08 292.98" stroke="rgba(154, 131, 9, 1)" stroke-width="1.5"></path><path d="M374.08 292.98L453.82 296.07" stroke="rgba(154, 131, 9, 1)" stroke-width="1.5"></path><path d="M374.08 292.98L277.66 282.72" stroke="rgba(154, 131, 9, 1)" stroke-width="1.5"></path><path d="M374.08 292.98L355.74 188.33" stroke="rgba(154, 131, 9, 1)" stroke-width="1.5"></path><path d="M454.29 -44.47L454.29 -44.47" stroke="rgba(154, 131, 9, 1)" stroke-width="1.5"></path><path d="M454.29 -44.47L532.98 -25.02" stroke="rgba(154, 131, 9, 1)" stroke-width="1.5"></path><path d="M436.81 41.52L436.81 41.52" stroke="rgba(154, 131, 9, 1)" stroke-width="1.5"></path><path d="M436.81 41.52L432.5 113.68" stroke="rgba(154, 131, 9, 1)" stroke-width="1.5"></path><path d="M436.81 41.52L454.29 -44.47" stroke="rgba(154, 131, 9, 1)" stroke-width="1.5"></path><path d="M436.81 41.52L525.36 50.65" stroke="rgba(154, 131, 9, 1)" stroke-width="1.5"></path><path d="M436.81 41.52L372.2 126.42" stroke="rgba(154, 131, 9, 1)" stroke-width="1.5"></path><path d="M436.81 41.52L528.92 101.24" stroke="rgba(154, 131, 9, 1)" stroke-width="1.5"></path><path d="M436.81 41.52L532.98 -25.02" stroke="rgba(154, 131, 9, 1)" stroke-width="1.5"></path><path d="M432.5 113.68L432.5 113.68" stroke="rgba(154, 131, 9, 1)" stroke-width="1.5"></path><path d="M432.5 113.68L431.9 180.7" stroke="rgba(154, 131, 9, 1)" stroke-width="1.5"></path><path d="M432.5 113.68L528.92 101.24" stroke="rgba(154, 131, 9, 1)" stroke-width="1.5"></path><path d="M431.9 180.7L431.9 180.7" stroke="rgba(154, 131, 9, 1)" stroke-width="1.5"></path><path d="M453.82 296.07L453.82 296.07" stroke="rgba(154, 131, 9, 1)" stroke-width="1.5"></path><path d="M453.82 296.07L530.04 266.58" stroke="rgba(154, 131, 9, 1)" stroke-width="1.5"></path><path d="M453.82 296.07L502.46 205.96" stroke="rgba(154, 131, 9, 1)" stroke-width="1.5"></path><path d="M453.82 296.07L431.9 180.7" stroke="rgba(154, 131, 9, 1)" stroke-width="1.5"></path><path d="M453.82 296.07L355.74 188.33" stroke="rgba(154, 131, 9, 1)" stroke-width="1.5"></path><path d="M453.82 296.07L603.34 279.93" stroke="rgba(154, 131, 9, 1)" stroke-width="1.5"></path><path d="M532.98 -25.02L532.98 -25.02" stroke="rgba(154, 131, 9, 1)" stroke-width="1.5"></path><path d="M532.98 -25.02L525.36 50.65" stroke="rgba(154, 131, 9, 1)" stroke-width="1.5"></path><path d="M532.98 -25.02L610.13 -41.61" stroke="rgba(154, 131, 9, 1)" stroke-width="1.5"></path><path d="M532.98 -25.02L590.92 51.6" stroke="rgba(154, 131, 9, 1)" stroke-width="1.5"></path><path d="M525.36 50.65L525.36 50.65" stroke="rgba(154, 131, 9, 1)" stroke-width="1.5"></path><path d="M525.36 50.65L528.92 101.24" stroke="rgba(154, 131, 9, 1)" stroke-width="1.5"></path><path d="M525.36 50.65L590.92 51.6" stroke="rgba(154, 131, 9, 1)" stroke-width="1.5"></path><path d="M528.92 101.24L528.92 101.24" stroke="rgba(154, 131, 9, 1)" stroke-width="1.5"></path><path d="M528.92 101.24L590.92 51.6" stroke="rgba(154, 131, 9, 1)" stroke-width="1.5"></path><path d="M502.46 205.96L502.46 205.96" stroke="rgba(154, 131, 9, 1)" stroke-width="1.5"></path><path d="M502.46 205.96L530.04 266.58" stroke="rgba(154, 131, 9, 1)" stroke-width="1.5"></path><path d="M502.46 205.96L431.9 180.7" stroke="rgba(154, 131, 9, 1)" stroke-width="1.5"></path><path d="M530.04 266.58L530.04 266.58" stroke="rgba(154, 131, 9, 1)" stroke-width="1.5"></path><path d="M610.13 -41.61L610.13 -41.61" stroke="rgba(154, 131, 9, 1)" stroke-width="1.5"></path><path d="M610.13 -41.61L688.15 -46.09" stroke="rgba(154, 131, 9, 1)" stroke-width="1.5"></path><path d="M610.13 -41.61L590.92 51.6" stroke="rgba(154, 131, 9, 1)" stroke-width="1.5"></path><path d="M610.13 -41.61L680.97 36.48" stroke="rgba(154, 131, 9, 1)" stroke-width="1.5"></path><path d="M610.13 -41.61L525.36 50.65" stroke="rgba(154, 131, 9, 1)" stroke-width="1.5"></path><path d="M610.13 -41.61L454.29 -44.47" stroke="rgba(154, 131, 9, 1)" stroke-width="1.5"></path><path d="M590.92 51.6L590.92 51.6" stroke="rgba(154, 131, 9, 1)" stroke-width="1.5"></path><path d="M590.92 51.6L680.97 36.48" stroke="rgba(154, 131, 9, 1)" stroke-width="1.5"></path><path d="M602.66 212.87L602.66 212.87" stroke="rgba(154, 131, 9, 1)" stroke-width="1.5"></path><path d="M602.66 212.87L603.34 279.93" stroke="rgba(154, 131, 9, 1)" stroke-width="1.5"></path><path d="M602.66 212.87L530.04 266.58" stroke="rgba(154, 131, 9, 1)" stroke-width="1.5"></path><path d="M602.66 212.87L690.47 184.23" stroke="rgba(154, 131, 9, 1)" stroke-width="1.5"></path><path d="M603.34 279.93L603.34 279.93" stroke="rgba(154, 131, 9, 1)" stroke-width="1.5"></path><path d="M603.34 279.93L530.04 266.58" stroke="rgba(154, 131, 9, 1)" stroke-width="1.5"></path><path d="M603.34 279.93L681.7 261.82" stroke="rgba(154, 131, 9, 1)" stroke-width="1.5"></path><path d="M688.15 -46.09L688.15 -46.09" stroke="rgba(154, 131, 9, 1)" stroke-width="1.5"></path><path d="M688.15 -46.09L680.97 36.48" stroke="rgba(154, 131, 9, 1)" stroke-width="1.5"></path><path d="M688.15 -46.09L590.92 51.6" stroke="rgba(154, 131, 9, 1)" stroke-width="1.5"></path><path d="M688.15 -46.09L699.31 101.94" stroke="rgba(154, 131, 9, 1)" stroke-width="1.5"></path><path d="M680.97 36.48L680.97 36.48" stroke="rgba(154, 131, 9, 1)" stroke-width="1.5"></path><path d="M680.97 36.48L699.31 101.94" stroke="rgba(154, 131, 9, 1)" stroke-width="1.5"></path><path d="M680.97 36.48L690.47 184.23" stroke="rgba(154, 131, 9, 1)" stroke-width="1.5"></path><path d="M680.97 36.48L525.36 50.65" stroke="rgba(154, 131, 9, 1)" stroke-width="1.5"></path><path d="M699.31 101.94L699.31 101.94" stroke="rgba(154, 131, 9, 1)" stroke-width="1.5"></path><path d="M699.31 101.94L690.47 184.23" stroke="rgba(154, 131, 9, 1)" stroke-width="1.5"></path><path d="M699.31 101.94L590.92 51.6" stroke="rgba(154, 131, 9, 1)" stroke-width="1.5"></path><path d="M699.31 101.94L602.66 212.87" stroke="rgba(154, 131, 9, 1)" stroke-width="1.5"></path><path d="M699.31 101.94L681.7 261.82" stroke="rgba(154, 131, 9, 1)" stroke-width="1.5"></path><path d="M690.47 184.23L690.47 184.23" stroke="rgba(154, 131, 9, 1)" stroke-width="1.5"></path><path d="M690.47 184.23L681.7 261.82" stroke="rgba(154, 131, 9, 1)" stroke-width="1.5"></path><path d="M681.7 261.82L681.7 261.82" stroke="rgba(154, 131, 9, 1)" stroke-width="1.5"></path><circle r="5" cx="-57.26" cy="182.8" fill="rgba(154, 131, 9, 1)"></circle><circle r="5" cx="-31.01" cy="277.13" fill="rgba(154, 131, 9, 1)"></circle><circle r="5" cx="42.34" cy="201.15" fill="rgba(154, 131, 9, 1)"></circle><circle r="5" cx="34.74" cy="272.14" fill="rgba(154, 131, 9, 1)"></circle><circle r="5" cx="105.35" cy="207.21" fill="rgba(154, 131, 9, 1)"></circle><circle r="5" cx="189.06" cy="131.63" fill="rgba(154, 131, 9, 1)"></circle><circle r="5" cx="208.75" cy="210.31" fill="rgba(154, 131, 9, 1)"></circle><circle r="5" cx="188.59" cy="268.71" fill="rgba(154, 131, 9, 1)"></circle><circle r="5" cx="275.21" cy="104.16" fill="rgba(154, 131, 9, 1)"></circle><circle r="5" cx="264.37" cy="218.4" fill="rgba(154, 131, 9, 1)"></circle><circle r="5" cx="277.66" cy="282.72" fill="rgba(154, 131, 9, 1)"></circle><circle r="5" cx="372.2" cy="126.42" fill="rgba(154, 131, 9, 1)"></circle><circle r="5" cx="355.74" cy="188.33" fill="rgba(154, 131, 9, 1)"></circle><circle r="5" cx="374.08" cy="292.98" fill="rgba(154, 131, 9, 1)"></circle><circle r="5" cx="454.29" cy="-44.47" fill="rgba(154, 131, 9, 1)"></circle><circle r="5" cx="436.81" cy="41.52" fill="rgba(154, 131, 9, 1)"></circle><circle r="5" cx="432.5" cy="113.68" fill="rgba(154, 131, 9, 1)"></circle><circle r="5" cx="431.9" cy="180.7" fill="rgba(154, 131, 9, 1)"></circle><circle r="5" cx="453.82" cy="296.07" fill="rgba(154, 131, 9, 1)"></circle><circle r="5" cx="532.98" cy="-25.02" fill="rgba(154, 131, 9, 1)"></circle><circle r="5" cx="525.36" cy="50.65" fill="rgba(154, 131, 9, 1)"></circle><circle r="5" cx="528.92" cy="101.24" fill="rgba(154, 131, 9, 1)"></circle><circle r="5" cx="502.46" cy="205.96" fill="rgba(154, 131, 9, 1)"></circle><circle r="5" cx="530.04" cy="266.58" fill="rgba(154, 131, 9, 1)"></circle><circle r="5" cx="610.13" cy="-41.61" fill="rgba(154, 131, 9, 1)"></circle><circle r="5" cx="590.92" cy="51.6" fill="rgba(154, 131, 9, 1)"></circle><circle r="5" cx="602.66" cy="212.87" fill="rgba(154, 131, 9, 1)"></circle><circle r="5" cx="603.34" cy="279.93" fill="rgba(154, 131, 9, 1)"></circle><circle r="5" cx="688.15" cy="-46.09" fill="rgba(154, 131, 9, 1)"></circle><circle r="5" cx="680.97" cy="36.48" fill="rgba(154, 131, 9, 1)"></circle><circle r="5" cx="699.31" cy="101.94" fill="rgba(154, 131, 9, 1)"></circle><circle r="5" cx="690.47" cy="184.23" fill="rgba(154, 131, 9, 1)"></circle><circle r="5" cx="681.7" cy="261.82" fill="rgba(154, 131, 9, 1)"></circle><path d="M-52.48 210.43L-52.48 210.43" stroke="hsl(264, 75%, 30.6%)" stroke-width="1.5"></path><path d="M-52.48 210.43L-54.57 275.47" stroke="hsl(264, 75%, 30.6%)" stroke-width="1.5"></path><path d="M-52.48 210.43L25.73 207.52" stroke="hsl(264, 75%, 30.6%)" stroke-width="1.5"></path><path d="M-52.48 210.43L50.68 266.93" stroke="hsl(264, 75%, 30.6%)" stroke-width="1.5"></path><path d="M-52.48 210.43L107.92 200.16" stroke="hsl(264, 75%, 30.6%)" stroke-width="1.5"></path><path d="M343.93 203.08L343.93 203.08" stroke="hsl(264, 75%, 30.6%)" stroke-width="1.5"></path><path d="M343.93 203.08L350.52 138.25" stroke="hsl(264, 75%, 30.6%)" stroke-width="1.5"></path><path d="M343.93 203.08L267.72 201.78" stroke="hsl(264, 75%, 30.6%)" stroke-width="1.5"></path><path d="M343.93 203.08L342.27 295.54" stroke="hsl(264, 75%, 30.6%)" stroke-width="1.5"></path><path d="M343.93 203.08L450.65 191.55" stroke="hsl(264, 75%, 30.6%)" stroke-width="1.5"></path><path d="M539.72 281.38L539.72 281.38" stroke="hsl(264, 75%, 30.6%)" stroke-width="1.5"></path><path d="M539.72 281.38L588.35 278.05" stroke="hsl(264, 75%, 30.6%)" stroke-width="1.5"></path><path d="M539.72 281.38L449.52 264.99" stroke="hsl(264, 75%, 30.6%)" stroke-width="1.5"></path><path d="M539.72 281.38L519.62 187.69" stroke="hsl(264, 75%, 30.6%)" stroke-width="1.5"></path><path d="M539.72 281.38L598.03 188.93" stroke="hsl(264, 75%, 30.6%)" stroke-width="1.5"></path><path d="M539.72 281.38L664.43 273.89" stroke="hsl(264, 75%, 30.6%)" stroke-width="1.5"></path><path d="M539.72 281.38L450.65 191.55" stroke="hsl(264, 75%, 30.6%)" stroke-width="1.5"></path><path d="M602.68 44.2L602.68 44.2" stroke="hsl(264, 75%, 30.6%)" stroke-width="1.5"></path><path d="M602.68 44.2L676.06 24.57" stroke="hsl(264, 75%, 30.6%)" stroke-width="1.5"></path><path d="M602.68 44.2L525.69 37.59" stroke="hsl(264, 75%, 30.6%)" stroke-width="1.5"></path><path d="M602.68 44.2L529.45 110.73" stroke="hsl(264, 75%, 30.6%)" stroke-width="1.5"></path><path d="M664.43 273.89L664.43 273.89" stroke="hsl(264, 75%, 30.6%)" stroke-width="1.5"></path><path d="M664.43 273.89L588.35 278.05" stroke="hsl(264, 75%, 30.6%)" stroke-width="1.5"></path><path d="M664.43 273.89L670.95 195.81" stroke="hsl(264, 75%, 30.6%)" stroke-width="1.5"></path><path d="M664.43 273.89L598.03 188.93" stroke="hsl(264, 75%, 30.6%)" stroke-width="1.5"></path><path d="M-54.57 275.47L-54.57 275.47" stroke="hsl(264, 75%, 30.6%)" stroke-width="1.5"></path><path d="M-54.57 275.47L25.73 207.52" stroke="hsl(264, 75%, 30.6%)" stroke-width="1.5"></path><path d="M-54.57 275.47L50.68 266.93" stroke="hsl(264, 75%, 30.6%)" stroke-width="1.5"></path><path d="M-54.57 275.47L114.94 292.78" stroke="hsl(264, 75%, 30.6%)" stroke-width="1.5"></path><path d="M-54.57 275.47L107.92 200.16" stroke="hsl(264, 75%, 30.6%)" stroke-width="1.5"></path><path d="M-54.57 275.47L199 268.82" stroke="hsl(264, 75%, 30.6%)" stroke-width="1.5"></path><path d="M25.73 207.52L25.73 207.52" stroke="hsl(264, 75%, 30.6%)" stroke-width="1.5"></path><path d="M25.73 207.52L50.68 266.93" stroke="hsl(264, 75%, 30.6%)" stroke-width="1.5"></path><path d="M25.73 207.52L107.92 200.16" stroke="hsl(264, 75%, 30.6%)" stroke-width="1.5"></path><path d="M50.68 266.93L50.68 266.93" stroke="hsl(264, 75%, 30.6%)" stroke-width="1.5"></path><path d="M50.68 266.93L114.94 292.78" stroke="hsl(264, 75%, 30.6%)" stroke-width="1.5"></path><path d="M50.68 266.93L107.92 200.16" stroke="hsl(264, 75%, 30.6%)" stroke-width="1.5"></path><path d="M107.92 200.16L107.92 200.16" stroke="hsl(264, 75%, 30.6%)" stroke-width="1.5"></path><path d="M107.92 200.16L114.94 292.78" stroke="hsl(264, 75%, 30.6%)" stroke-width="1.5"></path><path d="M107.92 200.16L200 186.51" stroke="hsl(264, 75%, 30.6%)" stroke-width="1.5"></path><path d="M107.92 200.16L199 268.82" stroke="hsl(264, 75%, 30.6%)" stroke-width="1.5"></path><path d="M114.94 292.78L114.94 292.78" stroke="hsl(264, 75%, 30.6%)" stroke-width="1.5"></path><path d="M114.94 292.78L199 268.82" stroke="hsl(264, 75%, 30.6%)" stroke-width="1.5"></path><path d="M114.94 292.78L25.73 207.52" stroke="hsl(264, 75%, 30.6%)" stroke-width="1.5"></path><path d="M114.94 292.78L200 186.51" stroke="hsl(264, 75%, 30.6%)" stroke-width="1.5"></path><path d="M200 186.51L200 186.51" stroke="hsl(264, 75%, 30.6%)" stroke-width="1.5"></path><path d="M200 186.51L267.72 201.78" stroke="hsl(264, 75%, 30.6%)" stroke-width="1.5"></path><path d="M200 186.51L199 268.82" stroke="hsl(264, 75%, 30.6%)" stroke-width="1.5"></path><path d="M200 186.51L343.93 203.08" stroke="hsl(264, 75%, 30.6%)" stroke-width="1.5"></path><path d="M200 186.51L350.52 138.25" stroke="hsl(264, 75%, 30.6%)" stroke-width="1.5"></path><path d="M199 268.82L199 268.82" stroke="hsl(264, 75%, 30.6%)" stroke-width="1.5"></path><path d="M199 268.82L267.72 201.78" stroke="hsl(264, 75%, 30.6%)" stroke-width="1.5"></path><path d="M267.72 201.78L267.72 201.78" stroke="hsl(264, 75%, 30.6%)" stroke-width="1.5"></path><path d="M267.72 201.78L350.52 138.25" stroke="hsl(264, 75%, 30.6%)" stroke-width="1.5"></path><path d="M350.52 138.25L350.52 138.25" stroke="hsl(264, 75%, 30.6%)" stroke-width="1.5"></path><path d="M350.52 138.25L452.74 127.37" stroke="hsl(264, 75%, 30.6%)" stroke-width="1.5"></path><path d="M342.27 295.54L342.27 295.54" stroke="hsl(264, 75%, 30.6%)" stroke-width="1.5"></path><path d="M452.74 127.37L452.74 127.37" stroke="hsl(264, 75%, 30.6%)" stroke-width="1.5"></path><path d="M452.74 127.37L450.65 191.55" stroke="hsl(264, 75%, 30.6%)" stroke-width="1.5"></path><path d="M452.74 127.37L529.45 110.73" stroke="hsl(264, 75%, 30.6%)" stroke-width="1.5"></path><path d="M452.74 127.37L519.62 187.69" stroke="hsl(264, 75%, 30.6%)" stroke-width="1.5"></path><path d="M452.74 127.37L525.69 37.59" stroke="hsl(264, 75%, 30.6%)" stroke-width="1.5"></path><path d="M450.65 191.55L450.65 191.55" stroke="hsl(264, 75%, 30.6%)" stroke-width="1.5"></path><path d="M450.65 191.55L519.62 187.69" stroke="hsl(264, 75%, 30.6%)" stroke-width="1.5"></path><path d="M449.52 264.99L449.52 264.99" stroke="hsl(264, 75%, 30.6%)" stroke-width="1.5"></path><path d="M449.52 264.99L450.65 191.55" stroke="hsl(264, 75%, 30.6%)" stroke-width="1.5"></path><path d="M449.52 264.99L519.62 187.69" stroke="hsl(264, 75%, 30.6%)" stroke-width="1.5"></path><path d="M449.52 264.99L342.27 295.54" stroke="hsl(264, 75%, 30.6%)" stroke-width="1.5"></path><path d="M449.52 264.99L343.93 203.08" stroke="hsl(264, 75%, 30.6%)" stroke-width="1.5"></path><path d="M515.99 -59.05L515.99 -59.05" stroke="hsl(264, 75%, 30.6%)" stroke-width="1.5"></path><path d="M515.99 -59.05L525.69 37.59" stroke="hsl(264, 75%, 30.6%)" stroke-width="1.5"></path><path d="M515.99 -59.05L619.53 -56.08" stroke="hsl(264, 75%, 30.6%)" stroke-width="1.5"></path><path d="M515.99 -59.05L602.68 44.2" stroke="hsl(264, 75%, 30.6%)" stroke-width="1.5"></path><path d="M515.99 -59.05L663.6 -52.8" stroke="hsl(264, 75%, 30.6%)" stroke-width="1.5"></path><path d="M515.99 -59.05L529.45 110.73" stroke="hsl(264, 75%, 30.6%)" stroke-width="1.5"></path><path d="M525.69 37.59L525.69 37.59" stroke="hsl(264, 75%, 30.6%)" stroke-width="1.5"></path><path d="M525.69 37.59L529.45 110.73" stroke="hsl(264, 75%, 30.6%)" stroke-width="1.5"></path><path d="M525.69 37.59L619.53 -56.08" stroke="hsl(264, 75%, 30.6%)" stroke-width="1.5"></path><path d="M525.69 37.59L519.62 187.69" stroke="hsl(264, 75%, 30.6%)" stroke-width="1.5"></path><path d="M529.45 110.73L529.45 110.73" stroke="hsl(264, 75%, 30.6%)" stroke-width="1.5"></path><path d="M529.45 110.73L519.62 187.69" stroke="hsl(264, 75%, 30.6%)" stroke-width="1.5"></path><path d="M519.62 187.69L519.62 187.69" stroke="hsl(264, 75%, 30.6%)" stroke-width="1.5"></path><path d="M619.53 -56.08L619.53 -56.08" stroke="hsl(264, 75%, 30.6%)" stroke-width="1.5"></path><path d="M619.53 -56.08L663.6 -52.8" stroke="hsl(264, 75%, 30.6%)" stroke-width="1.5"></path><path d="M619.53 -56.08L676.06 24.57" stroke="hsl(264, 75%, 30.6%)" stroke-width="1.5"></path><path d="M598.03 188.93L598.03 188.93" stroke="hsl(264, 75%, 30.6%)" stroke-width="1.5"></path><path d="M598.03 188.93L670.95 195.81" stroke="hsl(264, 75%, 30.6%)" stroke-width="1.5"></path><path d="M598.03 188.93L519.62 187.69" stroke="hsl(264, 75%, 30.6%)" stroke-width="1.5"></path><path d="M598.03 188.93L588.35 278.05" stroke="hsl(264, 75%, 30.6%)" stroke-width="1.5"></path><path d="M588.35 278.05L588.35 278.05" stroke="hsl(264, 75%, 30.6%)" stroke-width="1.5"></path><path d="M588.35 278.05L519.62 187.69" stroke="hsl(264, 75%, 30.6%)" stroke-width="1.5"></path><path d="M588.35 278.05L670.95 195.81" stroke="hsl(264, 75%, 30.6%)" stroke-width="1.5"></path><path d="M588.35 278.05L449.52 264.99" stroke="hsl(264, 75%, 30.6%)" stroke-width="1.5"></path><path d="M663.6 -52.8L663.6 -52.8" stroke="hsl(264, 75%, 30.6%)" stroke-width="1.5"></path><path d="M663.6 -52.8L676.06 24.57" stroke="hsl(264, 75%, 30.6%)" stroke-width="1.5"></path><path d="M663.6 -52.8L602.68 44.2" stroke="hsl(264, 75%, 30.6%)" stroke-width="1.5"></path><path d="M676.06 24.57L676.06 24.57" stroke="hsl(264, 75%, 30.6%)" stroke-width="1.5"></path><path d="M676.06 24.57L699.54 110.89" stroke="hsl(264, 75%, 30.6%)" stroke-width="1.5"></path><path d="M699.54 110.89L699.54 110.89" stroke="hsl(264, 75%, 30.6%)" stroke-width="1.5"></path><path d="M699.54 110.89L670.95 195.81" stroke="hsl(264, 75%, 30.6%)" stroke-width="1.5"></path><path d="M699.54 110.89L602.68 44.2" stroke="hsl(264, 75%, 30.6%)" stroke-width="1.5"></path><path d="M699.54 110.89L598.03 188.93" stroke="hsl(264, 75%, 30.6%)" stroke-width="1.5"></path><path d="M699.54 110.89L664.43 273.89" stroke="hsl(264, 75%, 30.6%)" stroke-width="1.5"></path><path d="M670.95 195.81L670.95 195.81" stroke="hsl(264, 75%, 30.6%)" stroke-width="1.5"></path><circle r="25" cx="-52.48" cy="210.43" fill="url(#SvgjsRadialGradient1051)"></circle><circle r="25" cx="343.93" cy="203.08" fill="url(#SvgjsRadialGradient1051)"></circle><circle r="25" cx="539.72" cy="281.38" fill="url(#SvgjsRadialGradient1051)"></circle><circle r="25" cx="602.68" cy="44.2" fill="url(#SvgjsRadialGradient1051)"></circle><circle r="25" cx="664.43" cy="273.89" fill="url(#SvgjsRadialGradient1051)"></circle><circle r="5" cx="-54.57" cy="275.47" fill="#9987b4"></circle><circle r="5" cx="25.73" cy="207.52" fill="#9987b4"></circle><circle r="5" cx="50.68" cy="266.93" fill="#9987b4"></circle><circle r="5" cx="107.92" cy="200.16" fill="#9987b4"></circle><circle r="5" cx="114.94" cy="292.78" fill="#9987b4"></circle><circle r="5" cx="200" cy="186.51" fill="#9987b4"></circle><circle r="5" cx="199" cy="268.82" fill="#9987b4"></circle><circle r="5" cx="267.72" cy="201.78" fill="#9987b4"></circle><circle r="5" cx="350.52" cy="138.25" fill="#9987b4"></circle><circle r="5" cx="342.27" cy="295.54" fill="#9987b4"></circle><circle r="5" cx="452.74" cy="127.37" fill="#9987b4"></circle><circle r="5" cx="450.65" cy="191.55" fill="#9987b4"></circle><circle r="5" cx="449.52" cy="264.99" fill="#9987b4"></circle><circle r="5" cx="515.99" cy="-59.05" fill="#9987b4"></circle><circle r="5" cx="525.69" cy="37.59" fill="#9987b4"></circle><circle r="5" cx="529.45" cy="110.73" fill="#9987b4"></circle><circle r="5" cx="519.62" cy="187.69" fill="#9987b4"></circle><circle r="5" cx="619.53" cy="-56.08" fill="#9987b4"></circle><circle r="5" cx="598.03" cy="188.93" fill="#9987b4"></circle><circle r="5" cx="588.35" cy="278.05" fill="#9987b4"></circle><circle r="5" cx="663.6" cy="-52.8" fill="#9987b4"></circle><circle r="5" cx="676.06" cy="24.57" fill="#9987b4"></circle><circle r="5" cx="699.54" cy="110.89" fill="#9987b4"></circle><circle r="5" cx="670.95" cy="195.81" fill="#9987b4"></circle></g><defs><mask id="SvgjsMask1050"><rect width="640" height="200" fill="#ffffff"></rect></mask><radialGradient id="SvgjsRadialGradient1051"><stop stop-color="#ffffff" offset="0.1"></stop><stop stop-color="rgba(51, 15, 105, 1)" offset="0.2"></stop><stop stop-color="rgba(51, 15, 105, 0)" offset="1"></stop></radialGradient></defs></svg>